# xmcd
#
# Track frame offsets:
#	150
#	27204
#	55000
#	76705
#	97510
#	119668
#	144993
#	166815
#	190918
#	209238
#	223014
#	240962
#
# Disc length: 3425 seconds
#
# Revision: 0
# Processed by: cddbd v1.5.2PL0 Copyright (c) Steve Scherf et al.
# Submitted via: EZCDAudioConverter 3.1.7.1
#
DISCID=980d5f0c
DTITLE=Don Alder - Armed and Dangerous
DYEAR=2015
DGENRE=Country
TTITLE0=Going Rogue
TTITLE1=Love and Life
TTITLE2=Armed and Dangerous
TTITLE3=Dancing With Spin Doctors
TTITLE4=Sophrosyne
TTITLE5=Calling
TTITLE6=Boy Meets Girl
TTITLE7=Circuitous
TTITLE8=Down to a Minute
TTITLE9=Arrows Will Fly
TTITLE10=Precious Moments
TTITLE11=Three Good Reasons to Play
EXTD=
EXTT0=
EXTT1=
EXTT2=
EXTT3=
EXTT4=
EXTT5=
EXTT6=
EXTT7=
EXTT8=
EXTT9=
EXTT10=
EXTT11=
PLAYORDER=
